<svg width="21" height="26" viewBox="0 0 21 26" fill="none" xmlns="http://www.w3.org/2000/svg">
<path fill-rule="evenodd" clip-rule="evenodd" d="M14.0326 4.77869C14.9131 3.75814 15.5067 2.33663 15.3442 0.922363C14.0753 0.970673 12.5402 1.73276 11.6303 2.75209C10.8133 3.65669 10.1 5.10236 10.2918 6.48885C11.7072 6.59392 13.152 5.80044 14.0326 4.77869ZM17.2073 13.7548C17.2427 17.4107 20.5536 18.6269 20.5903 18.6426C20.5634 18.7283 20.0615 20.3757 18.8463 22.0786C17.7948 23.5496 16.7041 25.0146 14.9858 25.046C13.298 25.0762 12.7545 24.0871 10.8237 24.0871C8.89405 24.0871 8.29073 25.0146 6.6933 25.0762C5.03479 25.1354 3.77077 23.4844 2.71192 22.0182C0.545362 19.0194 -1.10948 13.5435 1.11326 9.8478C2.2173 8.01324 4.18967 6.85018 6.3318 6.8212C7.95976 6.791 9.49736 7.87073 10.4927 7.87073C11.488 7.87073 13.3566 6.5724 15.3204 6.76323C16.1424 6.79584 18.4506 7.08086 19.932 9.15939C19.8123 9.23064 17.178 10.6993 17.2073 13.7548Z" fill="white"/>
</svg>
