<svg width="32" height="42" viewBox="0 0 32 42" fill="none" xmlns="http://www.w3.org/2000/svg">
<path d="M16 9.99992C24.8366 9.99992 32 17.1633 32 25.9999C32 34.8365 24.8366 41.9999 16 41.9999C7.16344 41.9999 0 34.8365 0 25.9999C0 17.1633 7.16344 9.99992 16 9.99992ZM16 13.9999C9.37258 13.9999 4 19.3725 4 25.9999C4 32.6273 9.37258 37.9999 16 37.9999C22.6274 37.9999 28 32.6273 28 25.9999C28 19.3725 22.6274 13.9999 16 13.9999ZM16 16.9999L18.645 22.3593L24.5596 23.2187L20.2798 27.3905L21.29 33.2811L16 30.4999L10.7099 33.2811L11.7202 27.3905L7.4405 23.2187L13.355 22.3593L16 16.9999ZM28 -7.53403e-05V5.99992L25.2732 8.27504C23.061 7.11534 20.605 6.35762 18.0022 6.0989L18 -0.0020752L28 -7.53403e-05ZM14 -0.0020752L13.9994 6.09872C11.3968 6.3572 8.94092 7.11465 6.72882 8.274L4 5.99992V-7.53403e-05L14 -0.0020752Z" fill="#E60A2B"/>
</svg>
