<svg width="40" height="40" viewBox="0 0 40 40" fill="none" xmlns="http://www.w3.org/2000/svg">
<path d="M20 18C25.5228 18 30 22.4772 30 28V40H26V28C26 24.8046 23.5022 22.1926 20.3526 22.0102L20 22C16.8046 22 14.1927 24.4978 14.0102 27.6474L14 28V40H10V28C10 22.4772 14.4772 18 20 18ZM7 24C7.5577 24 8.10018 24.0652 8.6202 24.1884C8.28404 25.188 8.07746 26.244 8.01792 27.3386L8 28L8.0014 28.1712C7.77514 28.0912 7.53642 28.0374 7.28892 28.0138L7 28C5.4406 28 4.1591 29.1898 4.01374 30.711L4 31V40H0V31C0 27.134 3.134 24 7 24ZM33 24C36.866 24 40 27.134 40 31V40H36V31C36 29.4406 34.8102 28.1592 33.289 28.0138L33 28C32.6496 28 32.3132 28.06 32.0006 28.1704L32 28C32 26.6686 31.7832 25.388 31.383 24.1912C31.8998 24.0652 32.4422 24 33 24ZM7 12C9.76142 12 12 14.2386 12 17C12 19.7614 9.76142 22 7 22C4.23858 22 2 19.7614 2 17C2 14.2386 4.23858 12 7 12ZM33 12C35.7614 12 38 14.2386 38 17C38 19.7614 35.7614 22 33 22C30.2386 22 28 19.7614 28 17C28 14.2386 30.2386 12 33 12ZM7 16C6.44772 16 6 16.4478 6 17C6 17.5522 6.44772 18 7 18C7.55228 18 8 17.5522 8 17C8 16.4478 7.55228 16 7 16ZM33 16C32.4478 16 32 16.4478 32 17C32 17.5522 32.4478 18 33 18C33.5522 18 34 17.5522 34 17C34 16.4478 33.5522 16 33 16ZM20 0C24.4182 0 28 3.58172 28 8C28 12.4183 24.4182 16 20 16C15.5817 16 12 12.4183 12 8C12 3.58172 15.5817 0 20 0ZM20 4C17.7908 4 16 5.79086 16 8C16 10.2091 17.7908 12 20 12C22.2092 12 24 10.2091 24 8C24 5.79086 22.2092 4 20 4Z" fill="#E60A2B"/>
</svg>
