<svg width="44" height="38" viewBox="0 0 44 38" fill="none" xmlns="http://www.w3.org/2000/svg">
<path d="M23.996 0V2H37.996V6H23.996V34H31.996V38H11.9961V34H19.996V6H5.9961V2H19.996V0H23.996ZM7.9961 8.6863L13.6529 14.3431C15.1007 15.7909 15.9961 17.7908 15.9961 20C15.9961 24.4182 12.4144 28 7.9961 28C3.57782 28 -0.00390625 24.4182 -0.00390625 20C-0.00390625 17.7908 0.89152 15.7909 2.33924 14.3431L7.9961 8.6863ZM35.996 8.6863L41.653 14.3431C43.1006 15.7909 43.996 17.7908 43.996 20C43.996 24.4182 40.4144 28 35.996 28C31.5778 28 27.996 24.4182 27.996 20C27.996 17.7908 28.8916 15.7909 30.3392 14.3431L35.996 8.6863ZM35.996 14.3431L33.1676 17.1716C32.4198 17.9194 31.996 18.9212 31.996 20L39.996 20.002C39.996 18.9212 39.5724 17.9194 38.8246 17.1716L35.996 14.3431ZM7.9961 14.3431L5.16766 17.1716C4.41976 17.9194 3.9961 18.9212 3.9961 20L11.9961 20.002C11.9961 18.9212 11.5724 17.9194 10.8245 17.1716L7.9961 14.3431Z" fill="#E60A2B"/>
</svg>
