<svg enable-background="new 0 0 512 512" viewBox="0 0 512 512" xmlns="http://www.w3.org/2000/svg"><g id="_x36_1_People"><g><path d="m494.095 255.747c3.946 0 7.143-3.197 7.143-7.143v-73.391c0-90.678-73.772-164.451-164.451-164.451h-161.574c-90.678 0-164.451 73.772-164.451 164.451v161.575c0 90.678 73.772 164.451 164.451 164.451h161.575c84.342 0 154.641-63.158 163.525-146.912.416-3.923-2.427-7.44-6.35-7.857-3.89-.414-7.44 2.425-7.857 6.35-8.11 76.47-72.303 134.133-149.319 134.133h-161.574c-82.801 0-150.165-67.364-150.165-150.165v-161.575c0-82.801 67.364-150.165 150.165-150.165h161.575c82.801 0 150.165 67.364 150.165 150.165v73.391c-.001 3.945 3.196 7.143 7.142 7.143z"/><path d="m312.809 221.238c-15.857 15.81-36.619 23.714-57.381 23.714-20.809 0-41.571-7.904-57.381-23.714-31.667-31.666-31.667-83.143 0-114.761 30.81-30.857 128.239-24.573 132.382-24.287 3.571.238 6.381 3.095 6.619 6.666.285 4.144 6.571 101.525-24.239 132.382z"/><path d="m129.405 370.053v30.759c0 16.36 13.311 29.671 29.671 29.671h193.848c16.36 0 29.671-13.311 29.671-29.671-.922-23.774 2.968-40.449-6.183-64.414-1.409-3.683-5.529-5.529-9.222-4.125-3.685 1.409-5.532 5.536-4.125 9.222 7.858 20.574 4.377 34.677 5.243 59.317 0 8.484-6.901 15.385-15.385 15.385h-193.847c-8.484 0-15.386-6.901-15.386-15.385v-30.759c0-44.947 38.723-85.362 88.623-78.553 16.288 2.225 31.313 2.353 45.936.386 28.188-3.789 51.461 5.032 68.906 23.963 2.674 2.899 7.185 3.088 10.093.412 2.899-2.674 3.085-7.192.412-10.093-20.825-22.6-48.781-32.805-81.313-28.441-13.335 1.793-27.107 1.665-42.104-.381-58.768-7.991-104.838 39.388-104.838 92.707z"/></g></g><g id="Layer_1"/></svg>